# xmcd
#
# Track frame offsets:
#	182
#	27487
#	114597
#
# Disc length: 2795 seconds
#
# Revision: 1
# Processed by: cddbd v1.4PL0 Copyright (c) Steve Scherf et al.
# Submitted via: EasyCDDAExtractor 5.0.7
#
DISCID=200ae903
DTITLE=Miguel Mateos - Zas - Rockas Vivas
DYEAR=1900
DGENRE=
TTITLE0=Perdiendo el control
TTITLE1=Solo una noche mas - Va por vos para vos - Tira para arriba
TTITLE2=Un poco de satisfaccion - Extra Extra - Un gato en la ciudad - En la c
TTITLE2=ocina - Un mundo feliz
EXTD=
EXTT0=
EXTT1=
EXTT2=
PLAYORDER=
